G04 ================== begin FILE IDENTIFICATION RECORD ==================*
G04 Layout Name:  C:/Users/user/Desktop/work/orcad/ex2_rlc/allegro/ex2_rlc.brd*
G04 Film Name:    BOTTOM*
G04 File Format:  Gerber RS274X*
G04 File Origin:  Cadence Allegro 17.2-S038*
G04 Origin Date:  Thu Jul 11 11:41:32 2019*
G04 *
G04 Layer:  ETCH/BOTTOM*
G04 Layer:  PIN/BOTTOM*
G04 Layer:  VIA CLASS/BOTTOM*
G04 *
G04 Offset:    (0.000 0.000)*
G04 Mirror:    No*
G04 Mode:      Positive*
G04 Rotation:  0*
G04 FullContactRelief:  No*
G04 UndefLineWidth:     0.000*
G04 ================== end FILE IDENTIFICATION RECORD ====================*
%FSLAX25Y25*MOMM*%
%IR0*IPPOS*OFA0.00000B0.00000*MIA0B0*SFA1.00000B1.00000*%
%ADD11C,1.524*%
%ADD12C,1.651*%
%ADD10C,.635*%
%ADD13C,.5*%
%ADD17C,1.91*%
%ADD15C,2.144*%
%ADD16C,2.272*%
%ADD14C,1.782*%
%ADD18R,5.084X5.084*%
G75*
%LPD*%
G75*
G36*
G01X300100Y4699900D02*
X6699900D01*
Y300100D01*
X6604200D01*
Y762200D01*
X6095800D01*
Y300100D01*
X762200D01*
Y762200D01*
X300100D01*
Y4063800D01*
X762200D01*
Y4572200D01*
X300100D01*
Y4699900D01*
G37*
%LPC*%
G75*
G54D17*
X4127500Y2857500D03*
G54D15*
X952500Y2794000D03*
X1524000Y1270000D03*
G54D16*
X1206500Y3873500D03*
X2222500D03*
X4127500Y1841500D03*
G54D14*
X1206500Y2794000D03*
X1524000Y1524000D03*
G54D18*
X6350000Y4318000D03*
%LPD*%
G75*
G54D10*
X508000Y508000D03*
Y4318000D03*
X6350000Y508000D03*
Y4318000D03*
G54D11*
X1206500Y2794000D03*
X952500D03*
X1524000Y1524000D03*
Y1270000D03*
G54D12*
X1206500Y3873500D03*
X2222500D03*
X4127500Y1841500D03*
Y2857500D03*
G54D13*
G01X1112300Y2794000D02*
X1206500D01*
G01X1524000Y1429800D02*
Y1524000D01*
G01D02*
Y1618200D01*
G01X1429800Y1524000D02*
X1524000D01*
G01D02*
X1618200D01*
G01X1206500Y2699800D02*
Y2794000D01*
G01D02*
Y2888200D01*
G01Y2794000D02*
X1300700D01*
G01X4127500Y2756900D02*
Y2857500D01*
G01D02*
Y2958100D01*
G01X4026900Y2857500D02*
X4127500D01*
G01D02*
X4228100D01*
M02*
