G04 ================== begin FILE IDENTIFICATION RECORD ==================*
G04 Layout Name:  C:/Users/user/Desktop/work/orcad/ex2_rlc/allegro/ex2_rlc.brd*
G04 Film Name:    Design*
G04 File Format:  Gerber RS274X*
G04 File Origin:  Cadence Allegro 17.2-S038*
G04 Origin Date:  Thu Jul 11 11:34:33 2019*
G04 *
G04 Layer:  VIA CLASS/BOTTOM*
G04 Layer:  VIA CLASS/TOP*
G04 Layer:  ROUTE KEEPIN/ALL*
G04 Layer:  REF DES/SILKSCREEN_TOP*
G04 Layer:  REF DES/SILKSCREEN_BOTTOM*
G04 Layer:  PIN/BOTTOM*
G04 Layer:  PIN/TOP*
G04 Layer:  PACKAGE KEEPIN/ALL*
G04 Layer:  PACKAGE GEOMETRY/PIN_NUMBER*
G04 Layer:  PACKAGE GEOMETRY/SILKSCREEN_TOP*
G04 Layer:  PACKAGE GEOMETRY/SILKSCREEN_BOTTOM*
G04 Layer:  PACKAGE GEOMETRY/SOLDERMASK_TOP*
G04 Layer:  PACKAGE GEOMETRY/SOLDERMASK_BOTTOM*
G04 Layer:  PACKAGE GEOMETRY/PASTEMASK_TOP*
G04 Layer:  PACKAGE GEOMETRY/PASTEMASK_BOTTOM*
G04 Layer:  MANUFACTURING/NCLEGEND-1-2*
G04 Layer:  ETCH/BOTTOM*
G04 Layer:  ETCH/TOP*
G04 Layer:  BOARD GEOMETRY/OUTLINE*
G04 Layer:  BOARD GEOMETRY/SILKSCREEN_TOP*
G04 Layer:  BOARD GEOMETRY/SILKSCREEN_BOTTOM*
G04 Layer:  BOARD GEOMETRY/SOLDERMASK_TOP*
G04 Layer:  BOARD GEOMETRY/SOLDERMASK_BOTTOM*
G04 Layer:  BOARD GEOMETRY/DESIGN_OUTLINE*
G04 *
G04 Offset:    (0.000 0.000)*
G04 Mirror:    No*
G04 Mode:      Positive*
G04 Rotation:  0*
G04 FullContactRelief:  No*
G04 UndefLineWidth:     0.000*
G04 ================== end FILE IDENTIFICATION RECORD ====================*
%FSLAX25Y25*MOMM*%
%IR0*IPPOS*OFA0.00000B0.00000*MIA0B0*SFA1.00000B1.00000*%
%ADD12C,1.524*%
%ADD14C,1.651*%
%AMMACRO15*
1,1,0.0,-.508,.3175*
20,1,0.0,-.508,.3175,-.500282,.405713,0.0*
1,1,0.0,-.500282,.405713*
20,1,0.0,-.500282,.405713,-.477364,.491246,0.0*
1,1,0.0,-.477364,.491246*
20,1,0.0,-.477364,.491246,-.439941,.5715,0.0*
1,1,0.0,-.439941,.5715*
20,1,0.0,-.439941,.5715,-.389151,.644036,0.0*
1,1,0.0,-.389151,.644036*
20,1,0.0,-.389151,.644036,-.326536,.706651,0.0*
1,1,0.0,-.326536,.706651*
20,1,0.0,-.326536,.706651,-.254,.757441,0.0*
1,1,0.0,-.254,.757441*
20,1,0.0,-.254,.757441,-.173746,.794864,0.0*
1,1,0.0,-.173746,.794864*
20,1,0.0,-.173746,.794864,-.088213,.817782,0.0*
1,1,0.0,-.088213,.817782*
20,1,0.0,-.088213,.817782,0.0,.8255,0.0*
1,1,0.0,0.0,.8255*
20,1,0.0,0.0,.8255,.088213,.817782,0.0*
1,1,0.0,.088213,.817782*
20,1,0.0,.088213,.817782,.173746,.794864,0.0*
1,1,0.0,.173746,.794864*
20,1,0.0,.173746,.794864,.254,.757441,0.0*
1,1,0.0,.254,.757441*
20,1,0.0,.254,.757441,.326536,.706651,0.0*
1,1,0.0,.326536,.706651*
20,1,0.0,.326536,.706651,.389151,.644036,0.0*
1,1,0.0,.389151,.644036*
20,1,0.0,.389151,.644036,.439941,.5715,0.0*
1,1,0.0,.439941,.5715*
20,1,0.0,.439941,.5715,.477364,.491246,0.0*
1,1,0.0,.477364,.491246*
20,1,0.0,.477364,.491246,.500282,.405713,0.0*
1,1,0.0,.500282,.405713*
20,1,0.0,.500282,.405713,.508,.3175,0.0*
1,1,0.0,.508,.3175*
20,1,0.0,.508,.3175,.508,-.3175,0.0*
1,1,0.0,.508,-.3175*
20,1,0.0,.508,-.3175,.500282,-.405713,0.0*
1,1,0.0,.500282,-.405713*
20,1,0.0,.500282,-.405713,.477364,-.491246,0.0*
1,1,0.0,.477364,-.491246*
20,1,0.0,.477364,-.491246,.439941,-.5715,0.0*
1,1,0.0,.439941,-.5715*
20,1,0.0,.439941,-.5715,.389151,-.644036,0.0*
1,1,0.0,.389151,-.644036*
20,1,0.0,.389151,-.644036,.326536,-.706651,0.0*
1,1,0.0,.326536,-.706651*
20,1,0.0,.326536,-.706651,.254,-.757441,0.0*
1,1,0.0,.254,-.757441*
20,1,0.0,.254,-.757441,.173746,-.794864,0.0*
1,1,0.0,.173746,-.794864*
20,1,0.0,.173746,-.794864,.088213,-.817782,0.0*
1,1,0.0,.088213,-.817782*
20,1,0.0,.088213,-.817782,0.0,-.8255,0.0*
1,1,0.0,0.0,-.8255*
20,1,0.0,0.0,-.8255,-.088213,-.817782,0.0*
1,1,0.0,-.088213,-.817782*
20,1,0.0,-.088213,-.817782,-.173746,-.794864,0.0*
1,1,0.0,-.173746,-.794864*
20,1,0.0,-.173746,-.794864,-.254,-.757441,0.0*
1,1,0.0,-.254,-.757441*
20,1,0.0,-.254,-.757441,-.326536,-.706651,0.0*
1,1,0.0,-.326536,-.706651*
20,1,0.0,-.326536,-.706651,-.389151,-.644036,0.0*
1,1,0.0,-.389151,-.644036*
20,1,0.0,-.389151,-.644036,-.439941,-.5715,0.0*
1,1,0.0,-.439941,-.5715*
20,1,0.0,-.439941,-.5715,-.477364,-.491246,0.0*
1,1,0.0,-.477364,-.491246*
20,1,0.0,-.477364,-.491246,-.500282,-.405713,0.0*
1,1,0.0,-.500282,-.405713*
20,1,0.0,-.500282,-.405713,-.508,-.3175,0.0*
1,1,0.0,-.508,-.3175*
20,1,0.0,-.508,-.3175,-.508,.3175,0.0*
1,1,0.0,-.508,.3175*
%
%ADD15MACRO15*%
%ADD16R,1.27X1.6*%
%AMMACRO13*
1,1,0.0,.635,0.0*
20,1,0.0,.635,0.0,.3175,.549926,0.0*
1,1,0.0,.3175,.549926*
20,1,0.0,.3175,.549926,-.3175,.549926,0.0*
1,1,0.0,-.3175,.549926*
20,1,0.0,-.3175,.549926,-.635,0.0,0.0*
1,1,0.0,-.635,0.0*
20,1,0.0,-.635,0.0,-.3175,-.549926,0.0*
1,1,0.0,-.3175,-.549926*
20,1,0.0,-.3175,-.549926,.3175,-.549926,0.0*
1,1,0.0,.3175,-.549926*
20,1,0.0,.3175,-.549926,.635,0.0,0.0*
1,1,0.0,.635,0.0*
%
%ADD13MACRO13*%
%ADD10C,.635*%
%AMMACRO11*
1,1,0.0,-.666,-.952*
20,1,0.0,-.666,-.952,.667,.953,0.0*
1,1,0.0,.667,.953*
1,1,0.0,-.666,.953*
20,1,0.0,-.666,.953,.667,-.952,0.0*
1,1,0.0,.667,-.952*
%
%ADD11MACRO11*%
%ADD17C,.5*%
%ADD18C,.254*%
%ADD20C,1.91*%
%ADD19C,1.782*%
%ADD21R,5.084X5.084*%
G75*
%LPD*%
G75*
G36*
G01X300100Y4699900D02*
X6699900D01*
Y300100D01*
X6604200D01*
Y762200D01*
X6095800D01*
Y300100D01*
X762200D01*
Y762200D01*
X300100D01*
Y4063800D01*
X762200D01*
Y4572200D01*
X300100D01*
Y4699900D01*
G37*
%LPC*%
G75*
G36*
G01X1628300Y1245200D02*
G02X1608300Y1336200I-104295J24776D01*
G01X1608500Y1336000D01*
G02X1628700Y1247100I-84513J-65948D01*
G01X1628300Y1245200D01*
G37*
G36*
G01X4015800Y1862400D02*
X4016300Y1864900D01*
G02X4191800Y1935100I111157J-23418D01*
G01X4192300Y1934800D01*
G02X4015800Y1862400I-64828J-93300D01*
G37*
G36*
G01X917700Y2895400D02*
X918700Y2895700D01*
G02X984100Y2691600I31321J-102492D01*
G02X916300Y2894900I-31585J102422D01*
G01X917700Y2895400D01*
G37*
G36*
G01X2319300Y3814100D02*
G02X2331100Y3906700I-96814J59389D01*
G01X2331600Y3905100D01*
G02X2320900Y3816800I-109106J-31577D01*
G01X2319300Y3814100D01*
G37*
G36*
G01X1127300Y3792100D02*
G02X1241100Y3765300I79225J81396D01*
G01X1240500Y3765100D01*
G02X1127900Y3791500I-33980J108397D01*
G01X1127300Y3792100D01*
G37*
G54D20*
X4127500Y2857500D03*
G54D19*
X1524000Y1524000D03*
X1206500Y2794000D03*
G54D21*
X6350000Y4318000D03*
%LPD*%
G75*
G54D10*
X508000Y508000D03*
D03*
Y4318000D03*
D03*
X6350000Y508000D03*
D03*
Y4318000D03*
D03*
G54D11*
X508000Y508000D03*
Y4318000D03*
X824000Y5700000D03*
X6350000Y508000D03*
Y4318000D03*
G54D12*
X1206500Y2794000D03*
D03*
X952500D03*
D03*
X1524000Y1524000D03*
D03*
Y1270000D03*
D03*
G54D13*
X1206500Y2794000D03*
X952500D03*
X824000Y6970000D03*
X1524000Y1524000D03*
Y1270000D03*
G54D14*
X1206500Y3873500D03*
D03*
X2222500D03*
D03*
X4127500Y1841500D03*
D03*
Y2857500D03*
D03*
G54D15*
X1206500Y3873500D03*
X824000Y6335000D03*
X2222500Y3873500D03*
X4127500Y1841500D03*
Y2857500D03*
G54D16*
X5626100Y3492500D03*
X5295900D03*
G54D17*
G01X1112300Y2794000D02*
X1206500D01*
G01X1112300D02*
X1206500D01*
G01X952500D02*
X1206500Y3873500D01*
G01X1524000Y1524000D02*
X1206500Y2794000D01*
G01X1524000Y1429800D02*
Y1524000D01*
G01D02*
Y1618200D01*
G01X1429800Y1524000D02*
X1524000D01*
G01D02*
X1618200D01*
G01X1524000Y1429800D02*
Y1524000D01*
G01D02*
Y1618200D01*
G01X1429800Y1524000D02*
X1524000D01*
G01D02*
X1618200D01*
G01X4127500Y2857500D02*
X1206500Y2794000D01*
G01Y2699800D02*
Y2794000D01*
G01D02*
Y2888200D01*
G01Y2794000D02*
X1300700D01*
G01X1206500Y2699800D02*
Y2794000D01*
G01D02*
Y2888200D01*
G01Y2794000D02*
X1300700D01*
G01X4127500Y2756900D02*
Y2857500D01*
G01Y2756900D02*
Y2857500D01*
G01D02*
Y2958100D01*
G01X4026900Y2857500D02*
X4127500D01*
G01D02*
X4228100D01*
G01X4127500D02*
Y2958100D01*
G01X4026900Y2857500D02*
X4127500D01*
G01D02*
X4228100D01*
G54D18*
G01X1524000Y1270000D02*
X4127500Y1841500D01*
G01X2222500Y3873500D02*
X5207000Y3492500D01*
X5295900D01*
G01X5626100D02*
Y3387100D01*
X5613400Y2743200D01*
X4127500Y1841500D01*
M02*
