G04 ================== begin FILE IDENTIFICATION RECORD ==================*
G04 Layout Name:  C:/Users/user/Desktop/work/orcad/ex2_rlc/allegro/ex2_rlc.brd*
G04 Film Name:    Silk_t*
G04 File Format:  Gerber RS274X*
G04 File Origin:  Cadence Allegro 17.2-S038*
G04 Origin Date:  Thu Jul 11 11:34:33 2019*
G04 *
G04 Layer:  REF DES/SILKSCREEN_TOP*
G04 Layer:  PACKAGE GEOMETRY/SILKSCREEN_TOP*
G04 Layer:  BOARD GEOMETRY/SILKSCREEN_TOP*
G04 *
G04 Offset:    (0.000 0.000)*
G04 Mirror:    No*
G04 Mode:      Positive*
G04 Rotation:  0*
G04 FullContactRelief:  No*
G04 UndefLineWidth:     0.200*
G04 ================== end FILE IDENTIFICATION RECORD ====================*
%FSLAX25Y25*MOMM*%
%IR0*IPPOS*OFA0.00000B0.00000*MIA0B0*SFA1.00000B1.00000*%
%ADD10C,.2*%
G75*
%LPD*%
G75*
G54D10*
G01X986600Y1742000D02*
X977000Y1748400D01*
X965700Y1752600D01*
X952900D01*
X938400Y1746200D01*
X927100Y1735700D01*
X919100Y1723000D01*
X912600Y1701800D01*
X911000Y1682700D01*
X914300Y1663700D01*
X919100Y1651000D01*
X928700Y1638300D01*
X940000Y1629800D01*
X951200Y1625600D01*
X962500D01*
X973800Y1629800D01*
X983400Y1636200D01*
X991500Y1644600D01*
G01X1080700Y1625600D02*
Y1752600D01*
X1061400Y1727200D01*
G01Y1625600D02*
X1100000D01*
G01X822500Y2949400D02*
X827400Y2941600D01*
X833200Y2936300D01*
X840100Y2933700D01*
X847800Y2936300D01*
X853700Y2941600D01*
X859500Y2949400D01*
X861500Y2959900D01*
Y3012400D01*
G01X920700Y2933700D02*
Y3012400D01*
X909000Y2996700D01*
G01Y2933700D02*
X932400D01*
G01X825500Y2667000D02*
Y2921000D01*
X1333500D01*
Y2667000D01*
X825500D01*
G01X1778000Y1397000D02*
G03I-254000J0D01*
G01X1828800Y3724100D02*
X1907500D01*
Y3699700D01*
X1903600Y3691900D01*
X1898300Y3687100D01*
X1887800Y3685100D01*
X1877300Y3687100D01*
X1870800Y3692900D01*
X1866800Y3699700D01*
Y3724100D01*
G01Y3699700D02*
X1828800Y3685100D01*
G01Y3625900D02*
X1907500D01*
X1891800Y3637600D01*
G01X1828800D02*
Y3614200D01*
G01X1358900Y4000500D02*
X2070100D01*
Y3746500D01*
X1358900D01*
Y4000500D01*
G01X3978100Y2235200D02*
Y2156500D01*
X3953700D01*
X3945900Y2160400D01*
X3941100Y2165700D01*
X3939100Y2176200D01*
X3941100Y2186700D01*
X3946900Y2193200D01*
X3953700Y2197200D01*
X3978100D01*
G01X3953700D02*
X3939100Y2235200D01*
G01X3898400Y2169600D02*
X3892600Y2161700D01*
X3885700Y2157800D01*
X3878000Y2156500D01*
X3868200Y2159100D01*
X3861400Y2165700D01*
X3859500Y2173600D01*
X3860400Y2181400D01*
X3864300Y2188000D01*
X3883800Y2201100D01*
X3892600Y2210300D01*
X3898400Y2223400D01*
X3900300Y2235200D01*
X3859500D01*
G01X4254500Y2705100D02*
Y1993900D01*
X4000500D01*
Y2705100D01*
X4254500D01*
G01X5249700Y3672800D02*
Y3594100D01*
X5288700D01*
G01X5347900D02*
Y3672800D01*
X5336200Y3657100D01*
G01Y3594100D02*
X5359600D01*
G01X5359400Y3403600D02*
Y3581400D01*
X5562600D01*
Y3403600D01*
X5359400D01*
M02*
