G04 ================== begin FILE IDENTIFICATION RECORD ==================*
G04 Layout Name:  C:/Users/user/Desktop/work/orcad/ex2_rlc/allegro/ex2_rlc.brd*
G04 Film Name:    TOP*
G04 File Format:  Gerber RS274X*
G04 File Origin:  Cadence Allegro 17.2-S038*
G04 Origin Date:  Thu Jul 11 11:41:32 2019*
G04 *
G04 Layer:  ETCH/TOP*
G04 Layer:  PIN/TOP*
G04 Layer:  VIA CLASS/TOP*
G04 *
G04 Offset:    (0.000 0.000)*
G04 Mirror:    No*
G04 Mode:      Positive*
G04 Rotation:  0*
G04 FullContactRelief:  No*
G04 UndefLineWidth:     0.000*
G04 ================== end FILE IDENTIFICATION RECORD ====================*
%FSLAX25Y25*MOMM*%
%IR0*IPPOS*OFA0.00000B0.00000*MIA0B0*SFA1.00000B1.00000*%
%ADD11C,1.524*%
%ADD12C,1.651*%
%ADD13R,1.27X1.6*%
%ADD10C,.635*%
%ADD14C,.5*%
%ADD15C,.254*%
%ADD17C,1.91*%
%ADD16C,1.782*%
%ADD18R,5.084X5.084*%
G75*
%LPD*%
G75*
G36*
G01X300100Y4699900D02*
X6699900D01*
Y300100D01*
X6604200D01*
Y762200D01*
X6095800D01*
Y300100D01*
X762200D01*
Y762200D01*
X300100D01*
Y4063800D01*
X762200D01*
Y4572200D01*
X300100D01*
Y4699900D01*
G37*
%LPC*%
G75*
G36*
G01X5531600Y3572500D02*
G02X5562600Y3603500I31000J0D01*
G01X5689600D01*
G02X5720600Y3572500I0J-31000D01*
G01Y3412500D01*
G02X5689600Y3381500I-31000J0D01*
G01X5669700D01*
X5656600Y2718300D01*
X4239900Y1858600D01*
X4240300Y1855300D01*
G02X4036400Y1773700I-112761J-13786D01*
G01X4034400Y1776300D01*
X1629000Y1248300D01*
X1628300Y1245200D01*
G02X1608300Y1336200I-104296J24776D01*
G01X1610300Y1333700D01*
X4015700Y1861700D01*
X4016300Y1864900D01*
G02X4191800Y1935100I111158J-23419D01*
G01X4194500Y1933300D01*
X5570200Y2768100D01*
X5582100Y3371100D01*
G03X5571900Y3381500I-10203J195D01*
G01X5562600D01*
G02X5531600Y3412500I0J31000D01*
G01Y3572500D01*
G37*
G36*
G01X2319300Y3814100D02*
G02X2331100Y3906700I-96814J59389D01*
G01X2332100Y3903600D01*
X5189900Y3538700D01*
G03X5201400Y3548900I1291J10127D01*
G01Y3572500D01*
G02X5232400Y3603500I31000J0D01*
G01X5359400D01*
G02X5390400Y3572500I0J-31000D01*
G01Y3412500D01*
G02X5359400Y3381500I-31000J0D01*
G01X5232400D01*
G02X5201400Y3412500I0J31000D01*
G01Y3449200D01*
X2321000Y3816900D01*
X2319300Y3814100D01*
G37*
G36*
G01X1127300Y3792100D02*
G02X1241100Y3765300I79226J81400D01*
G01X1238400Y3764400D01*
X1144500Y3365500D01*
X1028000Y2870200D01*
X1029900Y2868200D01*
G02X916300Y2894900I-77378J-74201D01*
G01X918900Y2895800D01*
X1026500Y3353000D01*
G03X1026700Y3353800I-9791J2873D01*
G01X1129300Y3790100D01*
X1127300Y3792100D01*
G37*
G54D17*
X4127500Y2857500D03*
G54D16*
X1524000Y1524000D03*
X1206500Y2794000D03*
G54D18*
X6350000Y4318000D03*
%LPD*%
G75*
G54D10*
X508000Y508000D03*
Y4318000D03*
X6350000Y508000D03*
Y4318000D03*
G54D11*
X1206500Y2794000D03*
X952500D03*
X1524000Y1524000D03*
Y1270000D03*
G54D12*
X1206500Y3873500D03*
X2222500D03*
X4127500Y1841500D03*
Y2857500D03*
G54D13*
X5626100Y3492500D03*
X5295900D03*
G54D14*
G01X1112300Y2794000D02*
X1206500D01*
G01X952500D02*
X1206500Y3873500D01*
G01X1524000Y1524000D02*
X1206500Y2794000D01*
G01X1524000Y1429800D02*
Y1524000D01*
G01D02*
Y1618200D01*
G01X1429800Y1524000D02*
X1524000D01*
G01D02*
X1618200D01*
G01X4127500Y2857500D02*
X1206500Y2794000D01*
G01Y2699800D02*
Y2794000D01*
G01D02*
Y2888200D01*
G01Y2794000D02*
X1300700D01*
G01X4127500Y2756900D02*
Y2857500D01*
G01D02*
Y2958100D01*
G01X4026900Y2857500D02*
X4127500D01*
G01D02*
X4228100D01*
G54D15*
G01X1524000Y1270000D02*
X4127500Y1841500D01*
G01X2222500Y3873500D02*
X5207000Y3492500D01*
X5295900D01*
G01X5626100D02*
Y3387100D01*
X5613400Y2743200D01*
X4127500Y1841500D01*
M02*
